<svg role="img" width="148" height="37" viewBox="0 0 148 37" fill="none" xmlns="http://www.w3.org/2000/svg">
    <title>MyWave.ai logo</title>
    <g clip-path="url(#clip0_16_5655)">
        <path d="M8.35477 1.24843C9.77625 1.24843 10.7257 5.258 11.4885 8.85298C11.2336 9.02887 11.0649 9.32501 11.0649 9.65884C11.0649 10.1363 11.4077 10.5329 11.86 10.6191C12.7771 14.9607 13.7176 18.8464 15.7314 18.8464C17.8797 18.8464 18.8059 14.4276 19.7858 9.75037C20.5791 5.96336 21.5681 1.24843 23.108 1.24843C24.6479 1.24843 25.6369 5.96156 26.4301 9.75037C27.2468 13.6469 28.0257 17.3621 29.5064 18.4946C29.5064 18.4964 29.5064 18.4982 29.5064 18.5C29.5064 19.0402 29.9444 19.4782 30.4846 19.4782C31.0248 19.4782 31.4628 19.0402 31.4628 18.5C31.4628 17.9598 31.0248 17.5218 30.4846 17.5218C30.2261 17.5218 29.991 17.6223 29.8151 17.7875C28.6467 16.6783 27.8337 12.8051 27.1624 9.59782C26.1825 4.92058 25.2564 0.501795 23.108 0.501795C20.9596 0.501795 20.0335 4.92058 19.0535 9.59782C18.2602 13.3848 17.2713 18.0998 15.7314 18.0998C14.3081 18.0998 13.3551 14.0704 12.5923 10.4701C12.8525 10.2942 13.023 9.99626 13.023 9.65884C13.023 9.17783 12.6766 8.77939 12.2208 8.69683C11.3054 4.36599 10.3649 0.5 8.35477 0.5C6.2064 0.5 5.28029 4.91879 4.30033 9.59602C3.62728 12.8051 2.81603 16.6765 1.64762 17.7857C1.47173 17.6206 1.23841 17.52 0.978163 17.52C0.43793 17.52 0 17.958 0 18.4982C0 19.0384 0.43793 19.4764 0.978163 19.4764C1.5184 19.4764 1.95633 19.0384 1.95633 18.4982C1.95633 18.4964 1.95633 18.4946 1.95633 18.4928C3.43524 17.3603 4.21597 13.6451 5.03261 9.74858C5.8259 5.96156 6.81484 1.24663 8.35477 1.24663V1.24843Z" fill="white"/>
        <path d="M37.9337 17.5217C37.3934 17.5217 36.9555 17.9597 36.9555 18.4999C36.9555 18.5017 36.9555 18.5035 36.9555 18.5053C35.4766 19.6378 34.6958 23.353 33.8792 27.2495C33.0859 31.0365 32.097 35.7515 30.557 35.7515C29.1302 35.7515 28.1771 31.706 27.4126 28.0985C27.6836 27.9244 27.8631 27.621 27.8631 27.2746C27.8631 26.7865 27.5041 26.3826 27.0357 26.309C26.1221 21.9962 25.1816 18.1535 23.1786 18.1535C21.0303 18.1535 20.1042 22.5723 19.1242 27.2495C18.3309 31.0365 17.342 35.7515 15.802 35.7515C14.2621 35.7515 13.2732 31.0383 12.4799 27.2495C11.6632 23.353 10.8843 19.6378 9.40359 18.5053C9.40359 18.5035 9.40359 18.5017 9.40359 18.4999C9.40359 17.9597 8.96566 17.5217 8.42543 17.5217C7.8852 17.5217 7.44727 17.9597 7.44727 18.4999C7.44727 19.0401 7.8852 19.4781 8.42543 19.4781C8.68388 19.4781 8.919 19.3775 9.09489 19.2124C10.2633 20.3216 11.0763 24.1948 11.7476 27.4021C12.7276 32.0793 13.6537 36.4981 15.802 36.4981C17.9504 36.4981 18.8765 32.0793 19.8565 27.4021C20.6498 23.6151 21.6387 18.9001 23.1786 18.9001C24.5965 18.9001 25.546 22.8936 26.307 26.4831C26.0629 26.6608 25.9049 26.948 25.9049 27.2729C25.9049 27.7413 26.2352 28.1326 26.6749 28.2295C27.5956 32.5872 28.5343 36.4981 30.5553 36.4981C32.7036 36.4981 33.6297 32.0793 34.6097 27.4021C35.2827 24.193 36.094 20.3216 37.2624 19.2124C37.4383 19.3775 37.6716 19.4781 37.9319 19.4781C38.4721 19.4781 38.91 19.0401 38.91 18.4999C38.91 17.9597 38.4721 17.5217 37.9319 17.5217H37.9337Z" fill="white"/>
        <path d="M46.0879 11.4338H48.7711L53.0194 17.3279L57.4256 11.4338H59.9904V25.7276H57.2874V15.7019L52.9996 21.4578L48.8285 15.7988V25.7258H46.0879V11.4338Z" fill="white"/>
        <path d="M65.6116 19.6971L60.7549 11.4338H63.7899L67.0205 17.1126L70.2511 11.4338H73.2664L68.3917 19.7563V25.7294H65.6116V19.6989V19.6971Z" fill="white"/>
        <path d="M74.0312 11.4338H76.8706L79.4946 21.3806L82.4704 11.4338H85.1339L88.0899 21.4003L90.7731 11.4338H93.5532L89.4808 25.7276H86.7599L83.7842 15.6444L80.7887 25.7276H78.0085L74.033 11.4338H74.0312Z" fill="white"/>
        <path d="M97.1178 11.4338H99.8388L105.243 25.7276H102.404L101.463 23.1233H95.4918L94.5513 25.7276H91.7119L97.116 11.4338H97.1178ZM96.4125 20.6178H100.544L98.4873 14.9391L96.4125 20.6178Z" fill="white"/>
        <path d="M102.563 11.4338H105.48L109.317 22.0465L113.194 11.4338H116.093L110.689 25.7276H107.968L102.563 11.4338Z" fill="white"/>
        <path d="M117.462 11.4338H127.077V14.0381H120.224V17.249H127.077V19.8532H120.224V23.1036H127.077V25.7276H117.462V11.4338Z" fill="white"/>
        <path d="M129.823 22.5562C130.821 22.5562 131.527 23.2813 131.527 24.2792C131.527 25.2771 130.821 26.0022 129.823 26.0022C128.825 26.0022 128.12 25.2771 128.12 24.2792C128.12 23.2813 128.825 22.5562 129.823 22.5562Z" fill="white"/>
        <path d="M132.353 22.7914C132.353 20.5981 134.175 19.2466 137.111 19.2466H139.891V19.1102C139.891 17.9741 139.127 17.1916 137.601 17.1916C136.406 17.1916 135.604 17.7013 135.114 18.5826L132.626 17.3495C133.703 15.9388 135.25 14.9409 137.619 14.9409C140.733 14.9409 142.514 16.5652 142.514 19.2287V25.7294H139.909V24.1033C139.145 25.2 137.696 25.9448 136.033 25.9448C133.723 25.9448 132.352 24.6526 132.352 22.7931L132.353 22.7914ZM139.911 21.7934V21.2263H137.424C135.817 21.2263 135.171 21.736 135.171 22.558C135.171 23.3208 135.701 23.7139 136.815 23.7139C138.107 23.7139 139.38 22.9313 139.909 21.7952L139.911 21.7934Z" fill="white"/>
        <path d="M145.997 10.4163C147.035 10.4163 147.74 11.1611 147.74 12.1787C147.74 13.1964 147.035 13.9018 145.997 13.9018C144.96 13.9018 144.274 13.1767 144.274 12.1787C144.274 11.1808 145 10.4163 145.997 10.4163ZM144.626 15.1545H147.387V25.7277H144.626V15.1545Z" fill="white"/>
    </g>
    <defs>
        <clipPath id="clip0_16_5655">
            <rect width="147.74" height="36" fill="white" transform="translate(0 0.5)"/>
        </clipPath>
    </defs>
</svg>