<svg title="MyWave Logo" width="35" height="33" viewBox="0 0 35 33" fill="none" xmlns="http://www.w3.org/2000/svg">
    <path d="M7.51521 0.668724C8.79384 0.668724 9.64788 4.23298 10.334 7.42868C10.1048 7.58503 9.95301 7.84828 9.95301 8.14504C9.95301 8.56943 10.2614 8.92203 10.6682 8.99861C11.4932 12.858 12.3392 16.3122 14.1506 16.3122C16.083 16.3122 16.9161 12.3842 17.7976 8.22641C18.5111 4.85999 19.4007 0.668724 20.7859 0.668724C22.1711 0.668724 23.0606 4.8584 23.7742 8.22641C24.5088 11.6901 25.2094 14.9927 26.5414 15.9995C26.5414 16.0011 26.5414 16.0027 26.5414 16.0043C26.5414 16.4845 26.9353 16.8738 27.4212 16.8738C27.9072 16.8738 28.3011 16.4845 28.3011 16.0043C28.3011 15.524 27.9072 15.1347 27.4212 15.1347C27.1888 15.1347 26.9773 15.2241 26.819 15.3709C25.768 14.3849 25.0367 10.9419 24.4329 8.09079C23.5514 3.93303 22.7184 0.00501343 20.7859 0.00501343C18.8534 0.00501343 18.0204 3.93303 17.1389 8.09079C16.4253 11.4572 15.5357 15.6485 14.1506 15.6485C12.8703 15.6485 12.013 12.0667 11.3269 8.86619C11.561 8.70983 11.7144 8.44498 11.7144 8.14504C11.7144 7.71746 11.4028 7.36326 10.9927 7.28987C10.1693 3.44003 9.32338 0.00341797 7.51521 0.00341797C5.58273 0.00341797 4.74968 3.93143 3.86819 8.0892C3.26278 10.9419 2.53305 14.3833 1.48205 15.3693C1.32384 15.2225 1.11396 15.1331 0.879869 15.1331C0.393923 15.1331 0 15.5224 0 16.0027C0 16.4829 0.393923 16.8722 0.879869 16.8722C1.36581 16.8722 1.75974 16.4829 1.75974 16.0027C1.75974 16.0011 1.75974 15.9995 1.75974 15.9979C3.09003 14.9911 3.79232 11.6885 4.52688 8.22481C5.24047 4.8584 6.13002 0.667128 7.51521 0.667128V0.668724Z" fill="white"/>
    <path d="M34.1216 15.1345C33.6356 15.1345 33.2417 15.5238 33.2417 16.004C33.2417 16.0056 33.2417 16.0072 33.2417 16.0088C31.9114 17.0156 31.2091 20.3182 30.4746 23.7819C29.761 27.1483 28.8714 31.3396 27.4862 31.3396C26.2028 31.3396 25.3455 27.7434 24.6577 24.5366C24.9015 24.3818 25.063 24.1122 25.063 23.8042C25.063 23.3703 24.7401 23.0113 24.3187 22.9459C23.497 19.112 22.651 15.6961 20.8493 15.6961C18.9168 15.6961 18.0837 19.6241 17.2023 23.7819C16.4887 27.1483 15.5991 31.3396 14.2139 31.3396C12.8288 31.3396 11.9392 27.1499 11.2256 23.7819C10.491 20.3182 9.79038 17.0156 8.45847 16.0088C8.45847 16.0072 8.45847 16.0056 8.45847 16.004C8.45847 15.5238 8.06455 15.1345 7.5786 15.1345C7.09265 15.1345 6.69873 15.5238 6.69873 16.004C6.69873 16.4843 7.09265 16.8736 7.5786 16.8736C7.81108 16.8736 8.02257 16.7842 8.18078 16.6374C9.23178 17.6234 9.96312 21.0664 10.5669 23.9175C11.4484 28.0753 12.2815 32.0033 14.2139 32.0033C16.1464 32.0033 16.9795 28.0753 17.861 23.9175C18.5745 20.5511 19.4641 16.3598 20.8493 16.3598C22.1247 16.3598 22.9787 19.9097 23.6632 23.1006C23.4437 23.2586 23.3016 23.5139 23.3016 23.8026C23.3016 24.2191 23.5987 24.5669 23.9942 24.653C24.8224 28.5268 25.6668 32.0033 27.4846 32.0033C29.4171 32.0033 30.2502 28.0753 31.1316 23.9175C31.7371 21.0648 32.4668 17.6234 33.5178 16.6374C33.676 16.7842 33.8859 16.8736 34.12 16.8736C34.6059 16.8736 34.9998 16.4843 34.9998 16.004C34.9998 15.5238 34.6059 15.1345 34.12 15.1345H34.1216Z" fill="white"/>
</svg>
