<svg width="320" height="78" viewBox="0 0 320 78" fill="none" xmlns="http://www.w3.org/2000/svg">
    <g clip-path="url(#clip0_14_9727)">
        <path d="M10.9004 20.0425C9.13164 28.4849 7.44059 36.5346 4.23733 38.9883C4.23733 38.9922 4.23733 38.9961 4.23733 39C4.23733 40.1705 3.28879 41.1194 2.11866 41.1194C0.94854 41.1194 0 40.1705 0 39C0 37.8295 0.94854 36.8806 2.11866 36.8806C2.67846 36.8806 3.18772 37.0984 3.56869 37.4562C6.09942 35.0529 7.86044 26.6611 9.31435 19.7119C11.4408 9.57404 13.4467 0 18.0961 0C22.4501 0 24.4832 8.37631 26.4658 17.7559C27.4532 17.9348 28.2035 18.7981 28.2035 19.8403C28.2035 20.5713 27.8342 21.213 27.2705 21.598C28.9227 29.4026 30.983 38.1289 34.0697 38.1289C37.4051 38.1289 39.5471 27.9171 41.2654 19.708C43.3957 9.57404 45.4016 0 50.051 0C54.7004 0 56.7102 9.57404 58.8328 19.708C60.2906 26.6611 62.0477 35.0491 64.5785 37.4523C64.9594 37.0945 65.4648 36.8768 66.0285 36.8768C67.1986 36.8768 68.1471 37.8256 68.1471 38.9961C68.1471 40.1666 67.1986 41.1155 66.0285 41.1155C64.8584 41.1155 63.9098 40.1666 63.9098 38.9961C63.9098 38.9922 63.9098 38.9883 63.9098 38.9844C60.7065 36.5307 59.0155 28.481 57.2467 20.0386C55.5285 11.8334 53.3865 1.61771 50.051 1.61771C46.7156 1.61771 44.5736 11.8295 42.8553 20.0386C40.7328 30.1726 38.7269 39.7466 34.0736 39.7466C29.7118 39.7466 27.6748 31.3276 25.6883 21.9207C24.7087 21.7341 23.9662 20.8747 23.9662 19.8403C23.9662 19.117 24.3277 18.4792 24.8836 18.0942C23.2315 10.3051 21.175 1.61771 18.0961 1.61771C14.7607 1.61771 12.6187 11.8334 10.9004 20.0386V20.0425ZM82.1653 36.8806C80.9952 36.8806 80.0467 37.8295 80.0467 39C80.0467 39.0039 80.0467 39.0078 80.0467 39.0117C76.8434 41.4655 75.1523 49.5151 73.3836 57.9575C71.6653 66.1627 69.5233 76.3784 66.1879 76.3784C63.0973 76.3784 61.0331 67.6132 59.377 59.7969C59.964 59.4197 60.3528 58.7625 60.3528 58.012C60.3528 56.9542 59.5753 56.0793 58.5607 55.9198C56.582 46.5752 54.5449 38.2495 50.2065 38.2495C45.5532 38.2495 43.5473 47.8235 41.4248 57.9575C39.7065 66.1627 37.5645 76.3784 34.2291 76.3784C30.8936 76.3784 28.7516 66.1666 27.0334 57.9575C25.2646 49.5151 23.5774 41.4655 20.3703 39.0117C20.3703 39.0078 20.3703 39.0039 20.3703 39C20.3703 37.8295 19.4217 36.8806 18.2516 36.8806C17.0815 36.8806 16.133 37.8295 16.133 39C16.133 40.1705 17.0815 41.1194 18.2516 41.1194C18.8114 41.1194 19.3207 40.9016 19.7016 40.5438C22.2324 42.9471 23.9934 51.3389 25.4473 58.2881C27.5699 68.4221 29.5758 77.9961 34.2291 77.9961C38.8824 77.9961 40.8883 68.4221 43.0108 58.2881C44.7291 50.0829 46.8711 39.8672 50.2065 39.8672C53.2776 39.8672 55.3341 48.5196 56.9824 56.297C56.4537 56.682 56.1116 57.3042 56.1116 58.0081C56.1116 59.023 56.8269 59.8708 57.7793 60.0808C59.7736 69.5226 61.8067 77.9961 66.184 77.9961C70.8373 77.9961 72.8432 68.4221 74.9657 58.2881C76.4235 51.335 78.1807 42.9471 80.7114 40.5438C81.0924 40.9016 81.5977 41.1194 82.1614 41.1194C83.3316 41.1194 84.2801 40.1705 84.2801 39C84.2801 37.8295 83.3316 36.8806 82.1614 36.8806H82.1653ZM99.826 54.6638H105.762V33.1553L114.797 45.4164L124.084 32.9453V54.6677H129.938V23.6901H124.383L114.839 36.4607L105.638 23.6901H99.826V54.6599V54.6638ZM142.114 54.6638H148.135V41.7221L158.694 23.6901H152.163L145.165 35.994L138.168 23.6901H131.594L142.114 41.5938V54.6599V54.6638ZM168.957 54.6638H174.978L181.467 32.8169L187.912 54.6638H193.805L202.626 23.694H196.604L190.793 45.2881L184.39 23.694H178.621L172.176 45.2453L166.492 23.694H160.342L168.953 54.6638H168.957ZM198.645 54.6638H204.795L206.832 49.0212H219.766L221.803 54.6638H227.953L216.248 23.694H210.354L198.649 54.6638H198.645ZM213.32 31.2887L217.775 43.5926H208.826L213.32 31.2887ZM233.854 54.6638H239.747L251.452 23.694H245.174L236.777 46.688L228.466 23.694H222.149L233.854 54.6638ZM254.419 54.6638H275.244V48.9785H260.401V41.936H275.244V36.2935H260.401V29.3365H275.244V23.694H254.419V54.6638ZM277.502 51.5256C277.502 53.6877 278.987 55.2588 281.192 55.2588C283.396 55.2588 284.881 53.6877 284.881 51.5256C284.881 49.3634 283.353 47.7924 281.192 47.7924C279.03 47.7924 277.502 49.3634 277.502 51.5256ZM294.646 55.1304C298.25 55.1304 301.391 53.5166 303.043 51.1406V54.6638H308.684V40.5788C308.684 34.808 304.823 31.2887 298.083 31.2887C292.951 31.2887 289.6 33.4508 287.268 36.5073L292.656 39.1789C293.717 37.2695 295.455 36.1651 298.044 36.1651C301.352 36.1651 303.004 37.8606 303.004 40.3222V40.6177H296.982C290.622 40.6177 286.677 43.5459 286.677 48.2979C286.677 52.3267 289.647 55.1265 294.65 55.1265L294.646 55.1304ZM296.341 50.2929C293.923 50.2929 292.78 49.4451 292.78 47.7885C292.78 46.0075 294.18 44.9031 297.659 44.9031H303.047V46.1319C301.9 48.5935 299.144 50.289 296.345 50.289L296.341 50.2929ZM312.489 25.3039C312.489 27.466 314.017 29.0371 316.221 29.0371C318.426 29.0371 319.996 27.466 319.996 25.3039C319.996 23.1418 318.468 21.4852 316.221 21.4852C313.974 21.4852 312.489 23.099 312.489 25.3039ZM313.251 54.6599H319.23V31.7514H313.251V54.6599Z" fill="url(#paint0_radial_14_9727)"/>
    </g>
    <defs>
        <radialGradient id="paint0_radial_14_9727" cx="0" cy="0" r="1" gradientUnits="userSpaceOnUse" gradientTransform="translate(-1.97093 -6.36196) scale(336.304 336.413)">
          <stop offset="0" stop-color="#0565ff"/>
          <stop offset=".13" stop-color="#0a62fa"/>
          <stop offset=".3" stop-color="#1b5bee"/>
          <stop offset=".49" stop-color="#3650da"/>
          <stop offset=".7" stop-color="#5c40be"/>
          <stop offset=".92" stop-color="#8c2c9b"/>
          <stop offset="1" stop-color="#a0248d"/>
        </radialGradient>
        <clipPath id="clip0_14_9727">
            <rect width="320" height="78" fill="white"/>
        </clipPath> 
    </defs>
</svg>