<svg width="32" height="32" viewBox="0 0 32 32" fill="none" xmlns="http://www.w3.org/2000/svg">
    <rect width="32" height="32" rx="8" fill="#0565FF"/>
    <path d="M21.97 26.032C20.53 26.032 20.0266 23.6412 19.4394 20.8589C19.1738 19.5726 18.5446 16.5806 18.0133 16.5806C17.482 16.5806 16.8529 19.5866 16.5732 20.8589C15.986 23.6272 15.4827 26.032 14.0426 26.032C12.6025 26.032 12.0992 23.6412 11.512 20.8589C11.2463 19.5726 10.6172 16.5806 10.0719 16.5806C9.76431 16.5806 9.51265 16.3289 9.51265 16.0213C9.51265 15.7138 9.76431 15.4621 10.0719 15.4621C11.512 15.4621 12.0153 17.8529 12.6025 20.6352C12.8682 21.9215 13.4973 24.9135 14.0426 24.9135C14.5879 24.9135 15.2031 21.9075 15.4827 20.6352C16.0699 17.8529 16.5732 15.4621 18.0133 15.4621C19.4534 15.4621 19.9567 17.8529 20.5439 20.6352C20.8096 21.9215 21.4387 24.9135 21.984 24.9135C22.5293 24.9135 23.1445 21.9075 23.4101 20.6352C23.9973 17.8529 24.5007 15.4621 25.9407 15.4621C26.2483 15.4621 26.5 15.7138 26.5 16.0213C26.5 16.3289 26.2483 16.5806 25.9407 16.5806C25.4095 16.5806 24.7803 19.5866 24.5007 20.8589C23.9134 23.6272 23.4101 26.032 21.97 26.032ZM22.4873 15.9794C22.4873 15.6718 22.2357 15.4201 21.9281 15.4201C21.3968 15.4201 20.7676 12.4142 20.502 11.1419C19.9148 8.35956 19.4115 5.96875 17.9714 5.96875C16.5313 5.96875 16.028 8.35956 15.4407 11.1419C15.1751 12.4281 14.5459 15.4201 14.0007 15.4201C13.4554 15.4201 12.8402 12.4142 12.5606 11.1419C11.9734 8.37354 11.47 5.96875 10.03 5.96875C8.58988 5.96875 8.08655 8.35956 7.49933 11.1419C7.23369 12.4281 6.60453 15.4201 6.05925 15.4201C5.75166 15.4201 5.5 15.6718 5.5 15.9794C5.5 16.287 5.75166 16.5387 6.05925 16.5387C7.49933 16.5387 8.00266 14.1478 8.58988 11.3656C8.85553 10.0793 9.48469 7.08726 10.03 7.08726C10.5752 7.08726 11.1904 10.0933 11.47 11.3656C12.0573 14.1478 12.5606 16.5387 14.0007 16.5387C15.4407 16.5387 15.9441 14.1478 16.5313 11.3656C16.7969 10.0793 17.4261 7.08726 17.9574 7.08726C18.4887 7.08726 19.1178 10.0933 19.3975 11.3656C19.9847 14.1339 20.488 16.5387 21.9281 16.5387C22.2357 16.5387 22.4873 16.287 22.4873 15.9794Z" fill="white"/>
</svg>
